<svg xmlns="http://www.w3.org/2000/svg" width="64" height="64" viewBox="0 0 64 64" shape-rendering="crispEdges"><rect width="64" height="64" fill="#2f5244"/><rect x="0" y="0" width="8" height="8" fill="#F7E6BF" stroke="#16161D" stroke-width="1"/><rect x="56" y="0" width="8" height="8" fill="#F7E6BF" stroke="#16161D" stroke-width="1"/><rect x="0" y="8" width="8" height="8" fill="#F7E6BF" stroke="#16161D" stroke-width="1"/><rect x="56" y="8" width="8" height="8" fill="#F7E6BF" stroke="#16161D" stroke-width="1"/><rect x="8" y="8" width="8" height="8" fill="#F7E6BF" stroke="#16161D" stroke-width="1"/><rect x="48" y="8" width="8" height="8" fill="#F7E6BF" stroke="#16161D" stroke-width="1"/><rect x="8" y="16" width="8" height="8" fill="#F7E6BF" stroke="#16161D" stroke-width="1"/><rect x="48" y="16" width="8" height="8" fill="#F7E6BF" stroke="#16161D" stroke-width="1"/><rect x="16" y="16" width="8" height="8" fill="#F7E6BF" stroke="#16161D" stroke-width="1"/><rect x="40" y="16" width="8" height="8" fill="#F7E6BF" stroke="#16161D" stroke-width="1"/><rect x="24" y="16" width="8" height="8" fill="#F7E6BF" stroke="#16161D" stroke-width="1"/><rect x="32" y="16" width="8" height="8" fill="#F7E6BF" stroke="#16161D" stroke-width="1"/><rect x="8" y="24" width="8" height="8" fill="#F7E6BF" stroke="#16161D" stroke-width="1"/><rect x="48" y="24" width="8" height="8" fill="#F7E6BF" stroke="#16161D" stroke-width="1"/><rect x="16" y="24" width="8" height="8" fill="#F7E6BF" stroke="#16161D" stroke-width="1"/><rect x="40" y="24" width="8" height="8" fill="#F7E6BF" stroke="#16161D" stroke-width="1"/><rect x="24" y="24" width="8" height="8" fill="#F7E6BF" stroke="#16161D" stroke-width="1"/><rect x="32" y="24" width="8" height="8" fill="#F7E6BF" stroke="#16161D" stroke-width="1"/><rect x="16" y="32" width="8" height="8" fill="#F7E6BF" stroke="#16161D" stroke-width="1"/><rect x="40" y="32" width="8" height="8" fill="#F7E6BF" stroke="#16161D" stroke-width="1"/><rect x="24" y="32" width="8" height="8" fill="#F7E6BF" stroke="#16161D" stroke-width="1"/><rect x="32" y="32" width="8" height="8" fill="#F7E6BF" stroke="#16161D" stroke-width="1"/><rect x="16" y="40" width="8" height="8" fill="#C24135" stroke="#16161D" stroke-width="1"/><rect x="40" y="40" width="8" height="8" fill="#C24135" stroke="#16161D" stroke-width="1"/><rect x="16" y="48" width="8" height="8" fill="#C24135" stroke="#16161D" stroke-width="1"/><rect x="40" y="48" width="8" height="8" fill="#C24135" stroke="#16161D" stroke-width="1"/><rect x="24" y="48" width="8" height="8" fill="#C24135" stroke="#16161D" stroke-width="1"/><rect x="32" y="48" width="8" height="8" fill="#C24135" stroke="#16161D" stroke-width="1"/><rect x="16" y="16" width="8" height="8" fill="#16161D"/><rect x="40" y="16" width="8" height="8" fill="#16161D"/></svg>